<svg width="16" height="16" viewBox="0 0 16 16" fill="none" xmlns="http://www.w3.org/2000/svg">
<path fill-rule="evenodd" clip-rule="evenodd" d="M3.27997 2.21997C3.13779 2.08749 2.94975 2.01537 2.75545 2.01879C2.56114 2.02222 2.37576 2.10093 2.23835 2.23835C2.10093 2.37576 2.02222 2.56114 2.01879 2.75545C2.01537 2.94975 2.08749 3.13779 2.21997 3.27997L12.72 13.78C12.7886 13.8537 12.8714 13.9128 12.9634 13.9537C13.0554 13.9947 13.1547 14.0168 13.2554 14.0186C13.3561 14.0203 13.4562 14.0018 13.5496 13.9641C13.643 13.9264 13.7278 13.8702 13.799 13.799C13.8702 13.7278 13.9264 13.643 13.9641 13.5496C14.0018 13.4562 14.0203 13.3561 14.0186 13.2554C14.0168 13.1547 13.9947 13.0554 13.9537 12.9634C13.9128 12.8714 13.8537 12.7886 13.78 12.72L12.458 11.397C13.4495 10.578 14.1968 9.5021 14.618 8.28697C14.6813 8.10327 14.6813 7.90367 14.618 7.71997C14.2917 6.77291 13.7661 5.90687 13.0766 5.18029C12.387 4.45371 11.5497 3.88351 10.621 3.50816C9.69229 3.13282 8.69388 2.96107 7.69315 3.00451C6.69242 3.04795 5.71264 3.30556 4.81997 3.75997L3.27997 2.21997ZM6.47597 5.41497L7.61097 6.55097C7.86544 6.48298 8.13332 6.48311 8.38773 6.55134C8.64214 6.61957 8.87414 6.75351 9.06044 6.93971C9.24674 7.12591 9.3808 7.35783 9.44917 7.6122C9.51754 7.86658 9.51782 8.13446 9.44997 8.38897L10.586 9.52397C10.9246 8.95094 11.0631 8.28156 10.9795 7.62121C10.896 6.96086 10.5952 6.34704 10.1246 5.87638C9.6539 5.40572 9.04008 5.10495 8.37973 5.02142C7.71938 4.93789 7.05 5.07633 6.47697 5.41497" fill="#2ECC71"/>
<path d="M7.81196 10.994L9.62796 12.81C7.93609 13.2142 6.15436 12.9742 4.62971 12.1368C3.10506 11.2995 1.94662 9.92463 1.37996 8.28005C1.31687 8.09666 1.31687 7.89744 1.37996 7.71405C1.63455 6.97702 2.01075 6.28783 2.49296 5.67505L5.00596 8.18805C5.05177 8.91724 5.3621 9.60464 5.87873 10.1213C6.39536 10.6379 7.08277 10.9482 7.81196 10.994Z" fill="#2ECC71"/>
</svg>
