<svg width="512" height="512" viewBox="0 0 512 512" fill="none" xmlns="http://www.w3.org/2000/svg">
<rect width="512" height="512" rx="80" fill="#0D130C"/>
<path d="M216.777 155.995H133.539V355.406H377.862V202.105H253.904C247.916 202.105 244.323 196.716 239.371 189.53C239.371 189.53 222.227 165.001 216.777 155.995Z" fill="#2ECC71" fill-opacity="0.07"/>
<path fill-rule="evenodd" clip-rule="evenodd" d="M102.4 141.025C102.4 133.24 108.987 125.455 118.568 125.455H223.963C229.352 125.455 233.424 125.814 237.736 132.042L264.084 171.565H392.833C400.617 171.565 409.6 176.835 409.6 188.332V368.58C409.6 376.365 405.288 386.545 390.437 386.545H118.568C110.784 386.545 102.4 380.557 102.4 368.58V141.025ZM133.539 155.995H216.777C222.227 165.001 239.371 189.53 239.371 189.53C239.468 189.67 239.564 189.809 239.659 189.947C244.464 196.924 248.032 202.105 253.904 202.105H377.862V355.406H133.539V155.995Z" fill="#2ECC71"/>
</svg>
