<svg width="16" height="16" viewBox="0 0 16 16" fill="none" xmlns="http://www.w3.org/2000/svg">
<path fill-rule="evenodd" clip-rule="evenodd" d="M4.77995 4.96996C4.9204 5.11059 4.99929 5.30121 4.99929 5.49996C4.99929 5.69871 4.9204 5.88934 4.77995 6.02996L2.80995 7.99996L4.77995 9.96996C4.85364 10.0386 4.91274 10.1214 4.95373 10.2134C4.99472 10.3054 5.01677 10.4047 5.01854 10.5054C5.02032 10.6061 5.00179 10.7062 4.96407 10.7996C4.92635 10.8929 4.87021 10.9778 4.79899 11.049C4.72777 11.1202 4.64294 11.1764 4.54955 11.2141C4.45616 11.2518 4.35613 11.2703 4.25543 11.2686C4.15472 11.2668 4.05541 11.2447 3.96341 11.2037C3.87141 11.1628 3.78861 11.1037 3.71995 11.03L1.21995 8.52996C1.0795 8.38934 1.00061 8.19871 1.00061 7.99996C1.00061 7.80121 1.0795 7.61059 1.21995 7.46996L3.71995 4.96996C3.86058 4.82951 4.0512 4.75062 4.24995 4.75062C4.4487 4.75062 4.63933 4.82951 4.77995 4.96996ZM11.22 4.96996C11.0795 5.11059 11.0006 5.30121 11.0006 5.49996C11.0006 5.69871 11.0795 5.88934 11.22 6.02996L13.1899 7.99996L11.22 9.96996C11.1463 10.0386 11.0872 10.1214 11.0462 10.2134C11.0052 10.3054 10.9831 10.4047 10.9814 10.5054C10.9796 10.6061 10.9981 10.7062 11.0358 10.7996C11.0735 10.8929 11.1297 10.9778 11.2009 11.049C11.2721 11.1202 11.357 11.1764 11.4504 11.2141C11.5437 11.2518 11.6438 11.2703 11.7445 11.2686C11.8452 11.2668 11.9445 11.2447 12.0365 11.2037C12.1285 11.1628 12.2113 11.1037 12.28 11.03L14.78 8.52996C14.9204 8.38934 14.9993 8.19871 14.9993 7.99996C14.9993 7.80121 14.9204 7.61059 14.78 7.46996L12.28 4.96996C12.1393 4.82951 11.9487 4.75062 11.75 4.75062C11.5512 4.75062 11.3606 4.82951 11.22 4.96996ZM8.85595 2.00796C9.05269 2.03619 9.23017 2.14136 9.34942 2.30036C9.46867 2.45936 9.51994 2.65919 9.49195 2.85596L7.99195 13.356C7.9577 13.5473 7.85054 13.7178 7.69304 13.8316C7.53554 13.9455 7.34 13.9937 7.14763 13.9662C6.95525 13.9388 6.78105 13.8377 6.66172 13.6843C6.5424 13.5309 6.48727 13.3372 6.50795 13.144L8.00795 2.64396C8.03618 2.44723 8.14135 2.26974 8.30035 2.15049C8.45935 2.03124 8.65918 1.97998 8.85595 2.00796Z" fill="#2ECC71"/>
</svg>
