<svg width="16" height="16" viewBox="0 0 16 16" fill="none" xmlns="http://www.w3.org/2000/svg">
<path d="M5.35406 2C4.95436 1.99997 4.56382 2.11971 4.23282 2.34376C3.90182 2.56781 3.64555 2.88591 3.49706 3.257L3.15906 4.102C3.43421 4.03398 3.71662 3.99972 4.00006 4H12.0001C12.2901 4 12.5711 4.035 12.8401 4.102L12.5031 3.257C12.3546 2.88591 12.0983 2.56781 11.7673 2.34376C11.4363 2.11971 11.0458 1.99997 10.6461 2H5.35406Z" fill="#2ECC71"/>
<path fill-rule="evenodd" clip-rule="evenodd" d="M2 13C2 12.4696 2.21071 11.9609 2.58579 11.5858C2.96086 11.2107 3.46957 11 4 11H12C12.5304 11 13.0391 11.2107 13.4142 11.5858C13.7893 11.9609 14 12.4696 14 13C14 13.5304 13.7893 14.0391 13.4142 14.4142C13.0391 14.7893 12.5304 15 12 15H4C3.46957 15 2.96086 14.7893 2.58579 14.4142C2.21071 14.0391 2 13.5304 2 13ZM12.75 13C12.75 13.1989 12.671 13.3897 12.5303 13.5303C12.3897 13.671 12.1989 13.75 12 13.75C11.8011 13.75 11.6103 13.671 11.4697 13.5303C11.329 13.3897 11.25 13.1989 11.25 13C11.25 12.8011 11.329 12.6103 11.4697 12.4697C11.6103 12.329 11.8011 12.25 12 12.25C12.1989 12.25 12.3897 12.329 12.5303 12.4697C12.671 12.6103 12.75 12.8011 12.75 13ZM9 13.75C9.19891 13.75 9.38968 13.671 9.53033 13.5303C9.67098 13.3897 9.75 13.1989 9.75 13C9.75 12.8011 9.67098 12.6103 9.53033 12.4697C9.38968 12.329 9.19891 12.25 9 12.25C8.80109 12.25 8.61032 12.329 8.46967 12.4697C8.32902 12.6103 8.25 12.8011 8.25 13C8.25 13.1989 8.32902 13.3897 8.46967 13.5303C8.61032 13.671 8.80109 13.75 9 13.75ZM4 5.5C3.46957 5.5 2.96086 5.71071 2.58579 6.08579C2.21071 6.46086 2 6.96957 2 7.5C2 8.03043 2.21071 8.53914 2.58579 8.91421C2.96086 9.28929 3.46957 9.5 4 9.5H12C12.5304 9.5 13.0391 9.28929 13.4142 8.91421C13.7893 8.53914 14 8.03043 14 7.5C14 6.96957 13.7893 6.46086 13.4142 6.08579C13.0391 5.71071 12.5304 5.5 12 5.5H4ZM12 8.25C12.1989 8.25 12.3897 8.17098 12.5303 8.03033C12.671 7.88968 12.75 7.69891 12.75 7.5C12.75 7.30109 12.671 7.11032 12.5303 6.96967C12.3897 6.82902 12.1989 6.75 12 6.75C11.8011 6.75 11.6103 6.82902 11.4697 6.96967C11.329 7.11032 11.25 7.30109 11.25 7.5C11.25 7.69891 11.329 7.88968 11.4697 8.03033C11.6103 8.17098 11.8011 8.25 12 8.25ZM9.75 7.5C9.75 7.69891 9.67098 7.88968 9.53033 8.03033C9.38968 8.17098 9.19891 8.25 9 8.25C8.80109 8.25 8.61032 8.17098 8.46967 8.03033C8.32902 7.88968 8.25 7.69891 8.25 7.5C8.25 7.30109 8.32902 7.11032 8.46967 6.96967C8.61032 6.82902 8.80109 6.75 9 6.75C9.19891 6.75 9.38968 6.82902 9.53033 6.96967C9.67098 7.11032 9.75 7.30109 9.75 7.5Z" fill="#2ECC71"/>
</svg>
