<svg width="16" height="16" viewBox="0 0 16 16" fill="none" xmlns="http://www.w3.org/2000/svg">
<path d="M8.00005 8C8.66309 8 9.29898 7.73661 9.76782 7.26777C10.2367 6.79893 10.5001 6.16304 10.5001 5.5C10.5001 4.83696 10.2367 4.20107 9.76782 3.73223C9.29898 3.26339 8.66309 3 8.00005 3C7.33701 3 6.70113 3.26339 6.23228 3.73223C5.76344 4.20107 5.50005 4.83696 5.50005 5.5C5.50005 6.16304 5.76344 6.79893 6.23228 7.26777C6.70113 7.73661 7.33701 8 8.00005 8ZM3.15605 11.763C3.31605 11.134 3.59605 10.553 3.96905 10.043C3.42653 9.93925 2.86492 10.0181 2.37193 10.2672C1.87894 10.5163 1.48234 10.9217 1.24405 11.42C1.10805 11.707 1.34605 12 1.66205 12H3.11105C3.12105 11.923 3.13605 11.844 3.15605 11.763ZM12.8471 11.763C12.8671 11.843 12.8831 11.923 12.8931 12H14.3391C14.6551 12 14.8931 11.707 14.7561 11.421C14.5181 10.9231 14.122 10.5179 13.6296 10.2686C13.1373 10.0194 12.5762 9.94004 12.0341 10.043C12.4081 10.553 12.6871 11.133 12.8471 11.763ZM14.0001 7.5C14.0001 7.69698 13.9613 7.89204 13.8859 8.07403C13.8105 8.25601 13.7 8.42137 13.5607 8.56066C13.4214 8.69995 13.2561 8.81044 13.0741 8.88582C12.8921 8.9612 12.697 9 12.5001 9C12.3031 9 12.108 8.9612 11.926 8.88582C11.744 8.81044 11.5787 8.69995 11.4394 8.56066C11.3001 8.42137 11.1896 8.25601 11.1142 8.07403C11.0389 7.89204 11.0001 7.69698 11.0001 7.5C11.0001 7.10218 11.1581 6.72064 11.4394 6.43934C11.7207 6.15804 12.1022 6 12.5001 6C12.8979 6 13.2794 6.15804 13.5607 6.43934C13.842 6.72064 14.0001 7.10218 14.0001 7.5ZM3.50005 9C3.89788 9 4.27941 8.84196 4.56071 8.56066C4.84202 8.27936 5.00005 7.89782 5.00005 7.5C5.00005 7.10218 4.84202 6.72064 4.56071 6.43934C4.27941 6.15804 3.89788 6 3.50005 6C3.10223 6 2.7207 6.15804 2.43939 6.43934C2.15809 6.72064 2.00005 7.10218 2.00005 7.5C2.00005 7.89782 2.15809 8.27936 2.43939 8.56066C2.7207 8.84196 3.10223 9 3.50005 9ZM5.00005 13C4.44805 13 3.98705 12.545 4.12405 12.01C4.34477 11.1495 4.84549 10.387 5.54733 9.84244C6.24917 9.29791 7.11224 9.00236 8.00055 9.00236C8.88886 9.00236 9.75193 9.29791 10.4538 9.84244C11.1556 10.387 11.6563 11.1495 11.8771 12.01C12.0131 12.545 11.5531 13 11.0001 13H5.00005Z" fill="#2ECC71"/>
</svg>
